<svg width="15" height="16" viewBox="0 0 15 16" fill="none" xmlns="http://www.w3.org/2000/svg">
<path fill-rule="evenodd" clip-rule="evenodd" d="M6.93848 6.1355C6.93848 5.825 7.19048 5.573 7.50098 5.573C7.81148 5.573 8.06348 5.825 8.06348 6.1355C8.06348 6.446 7.81148 6.698 7.50098 6.698C7.19048 6.698 6.93848 6.446 6.93848 6.1355ZM6.93848 7.82312C6.93848 7.51262 7.19048 7.26062 7.50098 7.26062C7.81148 7.26062 8.06348 7.51262 8.06348 7.82312V10.6356C8.06348 10.9461 7.81148 11.1981 7.50098 11.1981C7.19048 11.1981 6.93848 10.9461 6.93848 10.6356V7.82312ZM7.50049 12.8854C5.0193 12.8854 3.00049 10.8666 3.00049 8.38538C3.00049 5.90419 5.0193 3.88538 7.50049 3.88538C9.98168 3.88538 12.0005 5.90419 12.0005 8.38538C12.0005 10.8666 9.98168 12.8854 7.50049 12.8854ZM7.5 2.7605C4.39331 2.7605 1.875 5.27881 1.875 8.3855C1.875 11.4922 4.39331 14.0105 7.5 14.0105C10.6061 14.0105 13.125 11.4922 13.125 8.3855C13.125 5.27881 10.6061 2.7605 7.5 2.7605Z" fill="#9295A6"/>
</svg>
