<svg width="185" height="38" viewBox="0 0 185 38" fill="none" xmlns="http://www.w3.org/2000/svg">
<path d="M37.5422 1.79033C36.9061 0.688591 35.7256 0 34.4534 0H8.01832C6.74608 0 5.56565 0.688591 4.92953 1.79033C4.29997 2.89206 4.29997 4.2561 4.94265 5.35784C5.29678 5.96773 5.68369 6.63008 6.09029 7.32522C6.14931 7.43015 6.21489 7.53508 6.27391 7.64001C6.39195 7.84331 6.50999 8.0466 6.62804 8.24989C6.65427 8.30236 6.69361 8.34826 6.7264 8.39417L7.58549 9.85003L9.46106 13.0372H12.0383L10.1628 9.85003L8.85773 7.63344L8.67411 7.31867H8.70035C8.66756 7.27932 8.63477 7.23997 8.60198 7.19406L7.46089 5.25292C7.2576 4.90535 7.06086 4.55777 6.87068 4.23644C6.34604 3.338 6.99528 2.21659 8.03144 2.21659H34.4665C35.5027 2.21659 36.1519 3.34456 35.6273 4.23644C35.1157 5.12176 34.5386 6.09889 33.9419 7.12849C33.7582 7.43671 33.4303 7.63344 33.0697 7.63344H11.1333L12.4384 9.85003H12.7663H33.0762C34.2239 9.85003 35.2863 9.23358 35.8633 8.24989C36.4667 7.2203 37.0372 6.2366 37.5487 5.35784C38.1717 4.26266 38.1717 2.89206 37.5422 1.79033Z" fill="#45F5A1"/>
<path d="M25.8695 15.2733L4.96274 15.2667C4.60205 15.2667 4.27415 15.0766 4.09053 14.7618C3.4872 13.7322 2.91666 12.7485 2.40514 11.8697C1.8805 10.9713 2.52974 9.84989 3.56589 9.84989H5.1857L3.88067 7.6333H3.55934C2.2871 7.6333 1.10667 8.32189 0.470546 9.42363C-0.159016 10.5254 -0.159019 11.8894 0.48366 12.9911C0.995179 13.8699 1.57228 14.8536 2.16905 15.8832C2.74615 16.8669 3.81509 17.4833 4.95618 17.4833L25.8629 17.4899C26.8991 17.4899 27.5483 18.6179 27.0237 19.5097C26.5121 20.3951 25.935 21.3722 25.3383 22.4018C25.1546 22.71 24.8267 22.9068 24.4661 22.9068H20.105L21.4101 25.1233H24.5054C25.6334 25.1102 26.6826 24.5003 27.2532 23.5232C27.8565 22.4936 28.4271 21.5099 28.9386 20.6311C29.5813 19.536 29.5813 18.1654 28.9517 17.0636C28.3221 15.9619 27.1417 15.2733 25.8695 15.2733Z" fill="#45F5A1"/>
<path d="M15.967 19.7197H13.3897L19.823 30.5534C20.1837 31.1502 20.1968 31.8913 19.8493 32.4946L18.4459 34.9669C18.1704 35.4522 17.6786 35.6949 17.1933 35.6949C17.1474 35.6949 17.1015 35.6949 17.0622 35.6883C17.0162 35.6883 16.9703 35.6752 16.9244 35.6686C16.8785 35.6555 16.8326 35.649 16.7933 35.6358C16.7474 35.6227 16.7015 35.6096 16.6621 35.5899C16.6228 35.5703 16.5769 35.5506 16.5375 35.5309C16.4982 35.5113 16.4588 35.485 16.4195 35.4588C16.3801 35.4326 16.3408 35.4063 16.308 35.3735C16.2883 35.3604 16.2686 35.3407 16.2555 35.3276C16.2358 35.308 16.2162 35.2948 16.2031 35.2752C16.1571 35.2293 16.1112 35.1834 16.0719 35.1309C16.0325 35.0784 15.9932 35.0194 15.9604 34.9604L11.4682 27.1827C10.9305 26.258 11.5994 25.0972 12.6749 25.0972H13.4225V25.1038H14.1898V25.0972L12.8847 22.8807H12.6814C11.3961 22.8807 10.196 23.5692 9.5533 24.6841C8.91062 25.7989 8.91062 27.1827 9.5533 28.291L14.0455 36.0621C14.7078 37.2098 15.8883 37.8852 17.213 37.8852C18.5246 37.8852 19.7443 37.177 20.3936 36.0293L21.797 33.557C22.538 32.252 22.5118 30.6518 21.738 29.373L15.967 19.7197Z" fill="#45F5A1"/>
<path d="M44.0151 13.0045V27.5631H46.5006V19.9428H60.4953V17.641H46.5006V13.1816C46.5006 12.8668 46.7564 12.611 47.0711 12.611H65.0333V10.3223H46.7039C45.2152 10.3157 44.0151 11.5224 44.0151 13.0045Z" fill="white"/>
<path d="M81.7884 17.0212L74.5812 10.2534H71.0334L80.5358 19.1657V27.632H83.0279V19.1722L92.5369 10.2534H88.9956L81.7884 17.0212Z" fill="white"/>
<path d="M121.437 16.969C121.621 16.405 121.719 15.8148 121.719 15.218C121.719 14.8048 121.673 14.3851 121.575 13.9654C121.483 13.5588 121.339 13.1654 121.155 12.7981C120.972 12.4309 120.742 12.0898 120.467 11.7816C120.198 11.4734 119.876 11.2045 119.516 10.9816C119.155 10.752 118.735 10.575 118.276 10.4438C117.817 10.3127 117.299 10.2471 116.742 10.2471L101.226 10.2602C99.7435 10.2602 98.5369 11.4668 98.5369 12.9489V24.95C98.5369 26.4321 99.7435 27.6387 101.226 27.6387L116.742 27.6256C117.312 27.6256 117.837 27.56 118.303 27.4289C118.768 27.2977 119.188 27.1207 119.549 26.8977C119.909 26.6747 120.224 26.4124 120.486 26.1107C120.755 25.8025 120.985 25.4615 121.168 25.1008C121.352 24.7401 121.483 24.3532 121.575 23.9466C121.667 23.54 121.713 23.1203 121.713 22.7072C121.713 22.1104 121.614 21.5136 121.424 20.9365C121.24 20.3725 120.958 19.8545 120.598 19.3954L120.231 18.9363L120.604 18.4838C120.985 18.0248 121.254 17.5329 121.437 16.969ZM118.421 20.7922C118.591 21.0546 118.716 21.3562 118.794 21.6841C118.873 21.9923 118.912 22.3137 118.912 22.635C118.912 22.9039 118.886 23.0023 118.821 23.2711L118.794 23.363C118.716 23.6909 118.585 23.9925 118.421 24.2548C118.237 24.5434 118.007 24.7729 117.725 24.95C117.417 25.1467 117.063 25.2451 116.676 25.2451L101.586 25.2385C101.272 25.2385 101.016 24.9828 101.016 24.668V19.8872H116.676C117.102 19.8872 117.443 19.9266 117.725 20.0971C118.007 20.2742 118.243 20.5103 118.421 20.7922ZM101.016 17.5264V13.1195C101.016 12.8047 101.272 12.5489 101.586 12.5489H116.676C117.22 12.5489 117.686 12.6866 118.073 12.9686C118.434 13.2309 118.709 13.5588 118.899 13.9523C119.076 14.3327 119.168 14.6015 119.168 15.0344C119.168 15.4672 119.083 15.8803 118.906 16.2541C118.722 16.6476 118.447 16.9821 118.086 17.2444C117.739 17.4936 117.293 17.5395 116.676 17.5395H101.016V17.5264Z" fill="white"/>
<path d="M150.561 17.0243C150.751 16.4538 150.843 15.857 150.843 15.2602C150.843 14.8405 150.797 14.4142 150.698 14.0011C150.606 13.5879 150.462 13.1945 150.272 12.8206C150.088 12.4534 149.852 12.1058 149.577 11.7911C149.301 11.4828 148.974 11.2074 148.613 10.9779C148.246 10.7483 147.826 10.5647 147.36 10.4336C146.895 10.3024 146.377 10.2368 145.813 10.2368H127.719V12.5977H145.754C146.265 12.5977 146.704 12.7288 147.065 12.9912C147.406 13.2338 147.669 13.5486 147.846 13.9158C148.016 14.27 148.101 14.6634 148.101 15.0766C148.101 15.4897 148.016 15.8766 147.852 16.2308C147.682 16.6046 147.419 16.9128 147.078 17.162C146.718 17.4243 146.272 17.5555 145.754 17.5555H129.47V19.9163H145.754C146.114 19.9163 146.442 20.0082 146.724 20.1918C146.986 20.3557 147.203 20.5787 147.373 20.8476C147.531 21.0968 147.649 21.3788 147.728 21.687C147.8 21.9821 147.839 22.2903 147.839 22.5985C147.839 22.9068 147.8 23.215 147.728 23.5101C147.649 23.8183 147.531 24.1069 147.373 24.3561C147.203 24.6249 146.986 24.8414 146.724 25.0119C146.442 25.1955 146.114 25.2873 145.754 25.2873H127.719V27.6482H145.813C146.39 27.6482 146.921 27.5826 147.387 27.4514C147.852 27.3203 148.278 27.1432 148.646 26.9137C149.006 26.6907 149.328 26.4218 149.603 26.1136C149.879 25.7988 150.108 25.4578 150.292 25.0906C150.475 24.7233 150.613 24.3298 150.705 23.9233C150.797 23.5101 150.843 23.0904 150.843 22.6707C150.836 22.0674 150.738 21.4706 150.547 20.8869C150.357 20.3164 150.075 19.7917 149.708 19.3261L149.406 18.9458L149.715 18.572C150.102 18.0867 150.377 17.5883 150.561 17.0243Z" fill="white"/>
<path d="M173.172 21.5853C176.116 21.382 178.451 18.9228 178.451 15.9324C178.451 12.8043 175.906 10.2598 172.778 10.2598H167.716H162.043H159.531C158.049 10.2598 156.843 11.4664 156.843 12.9485V27.6252H159.328V21.5985H162.043H167.716H168.562H170.076L175.408 27.6252H178.51L173.172 21.5853ZM168.568 19.2769H167.722H162.05H159.335L159.315 13.1518C159.315 12.837 159.571 12.5813 159.885 12.5813H162.043H167.716H172.778C174.621 12.5813 176.123 14.083 176.123 15.9258C176.123 17.7686 174.621 19.2704 172.778 19.2704H168.568V19.2769Z" fill="white"/>
</svg>
